<svg xmlns="http://www.w3.org/2000/svg" width="128" height="32" viewBox="0 0 128 32">
  <defs>
    <style>
      .cls-1 {
        fill-rule: evenodd;
      }
    </style>
  </defs>
  <path id="header-pola-logo" class="cls-1" d="M1007.28,69.116h9.65v6.877H998.6V46h8.676V69.116Zm-72.313,6.877H926V46.005h14.237c7.507,0,10.774,5.236,10.774,10.37S947.847,66.95,940.237,66.95h-5.272Zm-0.014-15.908h3.409a3.589,3.589,0,0,0,3.761-3.716,3.435,3.435,0,0,0-3.761-3.5h-3.409v7.219Zm31,0.911a8.047,8.047,0,1,1,8.049,7.969A8.006,8.006,0,0,1,965.956,61Zm8.049,15.995c9.373,0,16.963-7.162,16.963-15.995s-7.59-16-16.963-16-16.964,7.165-16.964,16S964.636,76.991,974.005,76.991ZM1034.14,46l-11.91,29.99h9.01l1.65-4.761h10.45l1.66,4.759h9L1042.09,46h-7.95Zm1.01,18.707,2.9-8.363h0.13l2.9,8.363h-5.93Z" transform="translate(-926 -45)"/>
</svg>
