<?xml version="1.0" encoding="UTF-8"?><svg id="_レイヤー_1" xmlns="http://www.w3.org/2000/svg" viewBox="0 0 119.16 30.21"><path d="m20.37,30.21h-3.98L6.26,15.06l-2.89,3.29v11.85H0V0h3.37v14.75h.16c.77-1.15,1.63-2.26,2.4-3.25L15.37,0h4.15l-10.9,12.84,11.75,17.36Z"/><path d="m50.67,29.21c-1.01-.87-1.97-1.7-3.17-2.98-3.13,2.6-6,3.43-9.29,3.43-5.19,0-9.02-3.36-9.02-8.04,0-4.23,2.79-6.72,6.08-8.34v-.11c-1.78-2.15-2.59-4.3-2.59-6.11C32.68,3.47,35.39,0,40.15,0c3.75,0,6.42,2.49,6.42,5.96,0,3.06-1.7,5.36-7,7.81v.11c3.17,3.58,6.46,7.02,8.24,8.68,1.28-1.62,2.24-4.04,3.02-8.6h2.86c-.85,5.02-2.24,8.45-4.22,10.45,1.7,1.62,3.41,3.28,5.03,4.79h-3.83Zm-4.8-4.75c-1.24-1.09-5.22-5.17-9.09-9.47-1.7.87-4.53,2.75-4.53,6.19,0,3.62,2.82,6.08,6.66,6.08,2.94,0,5.42-1.21,6.97-2.79Zm-10.25-17.7c0,2.3,1.24,3.89,2.44,5.4,3.41-1.66,5.69-3.28,5.69-5.96,0-1.89-1.08-4-3.83-4-2.9,0-4.3,2.3-4.3,4.57Z"/><path d="m80.45,28.34c-1.35.64-3.99,1.28-7.35,1.28-7.58,0-13.7-4.79-13.7-14.53S65.32.04,73.94.04c3.52,0,5.57.72,6.5,1.17l-.85,2.64c-1.35-.64-3.25-1.17-5.57-1.17-6.69,0-11.26,4.38-11.26,12.3s4.18,12,11.07,12c2.24,0,4.45-.49,5.92-1.17l.7,2.53Z"/><path d="m110.69,14.57c0,10.11-5.8,15.09-12.77,15.09-7.31,0-12.5-5.62-12.5-14.6S90.88,0,98.27,0s12.42,5.89,12.42,14.57Zm-21.9.42c0,6.11,3.25,12.07,9.25,12.07s9.29-5.77,9.29-12.34c0-5.77-2.9-12.11-9.21-12.11s-9.33,6.26-9.33,12.38Z"/><path d="m114.56,27.28c0-1.43.97-2.45,2.32-2.45s2.28,1.02,2.28,2.45c0,1.36-.89,2.38-2.32,2.38s-2.28-1.13-2.28-2.38Z"/></svg>